<?xml version="1.0" encoding="utf-8"?>
<!-- Generator: Adobe Illustrator 27.5.0, SVG Export Plug-In . SVG Version: 6.00 Build 0)  -->
<svg version="1.1" xmlns="http://www.w3.org/2000/svg" xmlns:xlink="http://www.w3.org/1999/xlink" x="0px" y="0px"
	 viewBox="0 0 500 500" style="enable-background:new 0 0 500 500;" xml:space="preserve">
<g id="Background_Complete">
	<g>
		<rect y="382.398" style="fill:#EBEBEB;" width="500" height="0.25"/>
		<rect x="416.779" y="398.494" style="fill:#EBEBEB;" width="33.122" height="0.25"/>
		<rect x="322.527" y="401.208" style="fill:#EBEBEB;" width="8.693" height="0.25"/>
		<rect x="396.586" y="389.208" style="fill:#EBEBEB;" width="19.192" height="0.25"/>
		<rect x="52.459" y="390.888" style="fill:#EBEBEB;" width="43.193" height="0.25"/>
		<rect x="104.556" y="390.888" style="fill:#EBEBEB;" width="6.333" height="0.25"/>
		<rect x="131.471" y="395.111" style="fill:#EBEBEB;" width="93.676" height="0.25"/>
		<path style="fill:#EBEBEB;" d="M237.014,337.8H43.915c-3.147,0-5.708-2.561-5.708-5.708V60.66c0-3.147,2.561-5.708,5.708-5.708
			h193.099c3.146,0,5.707,2.561,5.707,5.708v271.432C242.721,335.239,240.16,337.8,237.014,337.8z M43.915,55.203
			c-3.01,0-5.458,2.448-5.458,5.458v271.432c0,3.01,2.448,5.458,5.458,5.458h193.099c3.009,0,5.457-2.448,5.457-5.458V60.66
			c0-3.009-2.448-5.458-5.457-5.458H43.915z"/>
		<path style="fill:#EBEBEB;" d="M453.31,337.8H260.212c-3.147,0-5.707-2.561-5.707-5.708V60.66c0-3.147,2.561-5.708,5.707-5.708
			H453.31c3.148,0,5.708,2.561,5.708,5.708v271.432C459.019,335.239,456.458,337.8,453.31,337.8z M260.212,55.203
			c-3.009,0-5.457,2.448-5.457,5.458v271.432c0,3.01,2.448,5.458,5.457,5.458H453.31c3.01,0,5.458-2.448,5.458-5.458V60.66
			c0-3.009-2.448-5.458-5.458-5.458H260.212z"/>
	</g>
	<g>
		<g>
			
				<rect x="250.829" y="165.508" transform="matrix(-1 -1.224647e-16 1.224647e-16 -1 648.1298 545.763)" style="fill:#F0F0F0;" width="146.471" height="214.747"/>
			<g>
				
					<rect x="256.007" y="172.268" transform="matrix(-1 -1.224647e-16 1.224647e-16 -1 648.1298 384.197)" style="fill:#E0E0E0;" width="136.117" height="39.661"/>
				
					<rect x="384.391" y="178.688" transform="matrix(-1 -1.224647e-16 1.224647e-16 -1 776.5144 390.6176)" style="fill:#EBEBEB;" width="7.732" height="33.241"/>
				
					<rect x="347.002" y="178.688" transform="matrix(-1 -1.224647e-16 1.224647e-16 -1 701.7369 390.6176)" style="fill:#EBEBEB;" width="7.732" height="33.241"/>
				
					<rect x="301.678" y="178.273" transform="matrix(-0.9855 -0.1698 0.1698 -0.9855 573.5471 438.8508)" style="fill:#EBEBEB;" width="7.732" height="33.241"/>
				
					<rect x="374.81" y="183.069" transform="matrix(-1 -1.224647e-16 1.224647e-16 -1 757.3522 394.9981)" style="fill:#EBEBEB;" width="7.732" height="28.86"/>
				
					<rect x="357.037" y="183.069" transform="matrix(-1 -1.224647e-16 1.224647e-16 -1 721.8067 394.9981)" style="fill:#EBEBEB;" width="7.732" height="28.86"/>
				
					<rect x="312.177" y="183.069" transform="matrix(-1 -1.224647e-16 1.224647e-16 -1 632.086 394.9981)" style="fill:#EBEBEB;" width="7.732" height="28.86"/>
				
					<rect x="333.624" y="182.574" transform="matrix(-0.9762 -0.2169 0.2169 -0.9762 624.2145 462.5214)" style="fill:#EBEBEB;" width="7.732" height="28.86"/>
				
					<rect x="368.124" y="177.038" transform="matrix(-1 -1.224647e-16 1.224647e-16 -1 740.1137 388.9673)" style="fill:#EBEBEB;" width="3.866" height="34.891"/>
				
					<rect x="322.132" y="177.038" transform="matrix(-1 -1.224647e-16 1.224647e-16 -1 648.1298 388.9673)" style="fill:#EBEBEB;" width="3.866" height="34.891"/>
			</g>
			<g>
				<rect x="256.007" y="218.209" style="fill:#E0E0E0;" width="136.117" height="39.661"/>
				<rect x="256.007" y="224.63" style="fill:#EBEBEB;" width="7.732" height="33.241"/>
				<rect x="293.395" y="224.63" style="fill:#EBEBEB;" width="7.732" height="33.241"/>
				
					<rect x="338.72" y="224.215" transform="matrix(0.9855 -0.1698 0.1698 0.9855 -35.9253 61.6816)" style="fill:#EBEBEB;" width="7.732" height="33.241"/>
				<rect x="265.587" y="229.01" style="fill:#EBEBEB;" width="7.732" height="28.86"/>
				<rect x="283.36" y="229.01" style="fill:#EBEBEB;" width="7.733" height="28.86"/>
				<rect x="328.221" y="229.01" style="fill:#EBEBEB;" width="7.732" height="28.86"/>
				
					<rect x="306.773" y="228.515" transform="matrix(0.9762 -0.2169 0.2169 0.9762 -45.2986 73.1589)" style="fill:#EBEBEB;" width="7.732" height="28.86"/>
				<rect x="276.14" y="222.98" style="fill:#EBEBEB;" width="3.866" height="34.891"/>
				<rect x="322.132" y="222.98" style="fill:#EBEBEB;" width="3.866" height="34.891"/>
				
					<rect x="384.391" y="224.63" transform="matrix(-1 -1.224647e-16 1.224647e-16 -1 776.5144 482.5007)" style="fill:#EBEBEB;" width="7.732" height="33.241"/>
				
					<rect x="374.81" y="229.01" transform="matrix(-1 -1.224647e-16 1.224647e-16 -1 757.3522 486.8812)" style="fill:#EBEBEB;" width="7.732" height="28.86"/>
				
					<rect x="357.037" y="229.01" transform="matrix(-1 -1.224647e-16 1.224647e-16 -1 721.8067 486.8812)" style="fill:#EBEBEB;" width="7.732" height="28.86"/>
				
					<rect x="368.124" y="222.98" transform="matrix(-1 -1.224647e-16 1.224647e-16 -1 740.1137 480.8504)" style="fill:#EBEBEB;" width="3.866" height="34.891"/>
			</g>
			<g>
				
					<rect x="256.007" y="264.151" transform="matrix(-1 -1.224647e-16 1.224647e-16 -1 648.1298 567.9633)" style="fill:#E0E0E0;" width="136.117" height="39.661"/>
				<g>
					
						<rect x="306.264" y="270.572" transform="matrix(-1 -1.224647e-16 1.224647e-16 -1 620.2613 574.3841)" style="fill:#EBEBEB;" width="7.732" height="33.241"/>
					
						<rect x="260.94" y="270.156" transform="matrix(-0.9855 -0.1698 0.1698 -0.9855 477.0623 614.3599)" style="fill:#EBEBEB;" width="7.732" height="33.241"/>
					
						<rect x="334.072" y="274.952" transform="matrix(-1 -1.224647e-16 1.224647e-16 -1 675.8766 578.7645)" style="fill:#EBEBEB;" width="7.732" height="28.86"/>
					
						<rect x="316.299" y="274.952" transform="matrix(-1 -1.224647e-16 1.224647e-16 -1 640.331 578.7645)" style="fill:#EBEBEB;" width="7.732" height="28.86"/>
					
						<rect x="271.439" y="274.952" transform="matrix(-1 -1.224647e-16 1.224647e-16 -1 550.6104 578.7645)" style="fill:#EBEBEB;" width="7.732" height="28.86"/>
					
						<rect x="292.886" y="274.457" transform="matrix(-0.9762 -0.2169 0.2169 -0.9762 523.7778 635.2647)" style="fill:#EBEBEB;" width="7.732" height="28.86"/>
					
						<rect x="327.386" y="268.921" transform="matrix(-1 -1.224647e-16 1.224647e-16 -1 658.638 572.7337)" style="fill:#EBEBEB;" width="3.866" height="34.891"/>
					
						<rect x="281.394" y="268.921" transform="matrix(-1 -1.224647e-16 1.224647e-16 -1 566.6542 572.7337)" style="fill:#EBEBEB;" width="3.866" height="34.891"/>
					
						<rect x="349.898" y="270.156" transform="matrix(-0.9855 -0.1698 0.1698 -0.9855 653.6854 629.4684)" style="fill:#EBEBEB;" width="7.732" height="33.241"/>
					
						<rect x="360.397" y="274.952" transform="matrix(-1 -1.224647e-16 1.224647e-16 -1 728.5265 578.7645)" style="fill:#EBEBEB;" width="7.732" height="28.86"/>
					
						<rect x="381.844" y="274.457" transform="matrix(-0.9762 -0.2169 0.2169 -0.9762 699.5759 654.5605)" style="fill:#EBEBEB;" width="7.732" height="28.86"/>
					
						<rect x="370.352" y="268.921" transform="matrix(-1 -1.224647e-16 1.224647e-16 -1 744.5703 572.7337)" style="fill:#EBEBEB;" width="3.866" height="34.891"/>
				</g>
			</g>
			<rect x="397.301" y="165.508" style="fill:#E0E0E0;" width="25.269" height="215.31"/>
		</g>
		<g>
			<g>
				<polygon style="fill:#E0E0E0;" points="188.919,136.429 150.595,114.133 121.068,114.133 82.108,135.372 82.108,279.869 
					188.919,279.869 				"/>
			</g>
			<g>
				<g>
					<g>
						<path style="fill:#FAFAFA;" d="M81.009,136.429l1.099-1.056c14.251-13.696,33.023-21.239,52.855-21.239c0.001,0,0,0,0,0
							c19.832,0,38.605,7.544,52.856,21.24l1.099,1.056v143.44H81.009V136.429z M181.761,139.5
							c-12.77-11.753-29.328-18.208-46.797-18.208c-17.469,0.001-34.027,6.455-46.797,18.209v133.21h93.594V139.5z"/>
					</g>
				</g>
				<polygon style="fill:#F0F0F0;" points="137.648,273.572 132.28,273.572 132.28,225.618 86.811,225.618 86.811,220.249 
					132.28,220.249 132.28,171.202 86.811,171.202 86.811,165.833 132.28,165.833 132.28,120.365 137.648,120.365 137.648,165.833 
					183.117,165.833 183.117,171.202 137.648,171.202 137.648,220.249 183.117,220.249 183.117,225.618 137.648,225.618 				"/>
				<g>
					<path style="fill:#F0F0F0;" d="M77.43,134.968l1.048-1.049c31.147-31.145,81.825-31.145,112.972,0l1.048,1.049v148.48H77.43
						V134.968z M185.34,137.953c-28.081-26.988-72.67-26.987-100.752,0V276.29H185.34V137.953z"/>
				</g>
			</g>
		</g>
		<g>
			
				<ellipse transform="matrix(0.9925 -0.1222 0.1222 0.9925 -12.3838 41.5317)" style="fill:#E0E0E0;" cx="332.448" cy="121.74" rx="17.208" ry="17.208"/>
			
				<ellipse transform="matrix(0.9951 -0.0985 0.0985 0.9951 -10.3781 33.3511)" style="fill:#F0F0F0;" cx="332.448" cy="121.74" rx="14.632" ry="14.631"/>
			
				<polyline style="fill:#F0F0F0;stroke:#E0E0E0;stroke-width:2;stroke-linecap:round;stroke-linejoin:round;stroke-miterlimit:10;" points="
				333.138,111.703 333.138,121.931 339.917,118.096 			"/>
		</g>
	</g>
</g>
<g id="Background_Simple" style="display:none;">
	<g style="display:inline;">
		<path style="fill:#407BFF;" d="M82.732,125.62c27.919-59.449,127.059-51.062,165.317-9.255
			c38.258,41.806,50.696,68.599,85.208,52.983c34.512-15.616,78.518-11.44,81.043,38.164s-37.913,108.263-102.09,125.615
			c-64.177,17.352-64.161,78.759-149.1,66.368c-46.31-6.756-47.365-56.86-40.825-98.301
			C128.825,259.754,50.354,194.564,82.732,125.62z"/>
		<path style="opacity:0.9;fill:#FFFFFF;" d="M82.732,125.62c27.919-59.449,127.059-51.062,165.317-9.255
			c38.258,41.806,50.696,68.599,85.208,52.983c34.512-15.616,78.518-11.44,81.043,38.164s-37.913,108.263-102.09,125.615
			c-64.177,17.352-64.161,78.759-149.1,66.368c-46.31-6.756-47.365-56.86-40.825-98.301
			C128.825,259.754,50.354,194.564,82.732,125.62z"/>
	</g>
</g>
<g id="Shadow_1_">
	<ellipse id="_x3C_Path_x3E__359_" style="fill:#F5F5F5;" cx="250" cy="416.238" rx="193.889" ry="11.323"/>
</g>
<g id="Table">
	<g>
		<g>
			
				<rect x="78.665" y="405.527" transform="matrix(-1 -1.224647e-16 1.224647e-16 -1 247.6721 822.5981)" style="fill:#263238;" width="90.342" height="11.545"/>
			
				<rect x="78.665" y="405.527" transform="matrix(-1 -1.224647e-16 1.224647e-16 -1 212.9603 822.5981)" style="opacity:0.2;fill:#FFFFFF;enable-background:new    ;" width="55.63" height="11.545"/>
			<rect x="77.201" y="326.979" style="fill:#407BFF;" width="93.818" height="85.19"/>
			<rect x="77.201" y="326.979" style="opacity:0.4;fill:#FFFFFF;enable-background:new    ;" width="93.818" height="85.19"/>
			<rect x="136.5" y="326.979" style="opacity:0.2;enable-background:new    ;" width="34.52" height="85.19"/>
			<path style="fill:#407BFF;" d="M74.421,326.977c0,0.857,0.343,1.641,0.906,2.205c0.564,0.564,1.335,0.907,2.193,0.907h93.175
				c1.715,0,3.099-1.396,3.099-3.111c0-0.858-0.343-1.629-0.906-2.193c-0.563-0.563-1.335-0.906-2.193-0.906H77.52
				C75.805,323.878,74.421,325.262,74.421,326.977z"/>
			<path style="opacity:0.2;fill:#FFFFFF;enable-background:new    ;" d="M74.421,326.977c0,0.857,0.343,1.641,0.906,2.205
				c0.564,0.564,1.335,0.907,2.193,0.907h58.857c1.715,0,3.099-1.396,3.099-3.111c0-0.858-0.343-1.629-0.906-2.193
				c-0.563-0.563-1.335-0.906-2.193-0.906H77.52C75.805,323.878,74.421,325.262,74.421,326.977z"/>
			
				<rect x="81.504" y="334.521" transform="matrix(-1 -1.224647e-16 1.224647e-16 -1 213.0816 686.1029)" style="opacity:0.3;fill:#FFFFFF;enable-background:new    ;" width="50.074" height="17.061"/>
			
				<rect x="81.504" y="354.964" transform="matrix(-1 -1.224647e-16 1.224647e-16 -1 213.0816 761.8456)" style="opacity:0.3;fill:#FFFFFF;enable-background:new    ;" width="50.074" height="51.918"/>
			<path style="opacity:0.2;enable-background:new    ;" d="M104.93,338.327c0,0.89,0.721,1.611,1.611,1.611
				c0.89,0,1.611-0.721,1.611-1.611c0-0.89-0.721-1.611-1.611-1.611C105.651,336.716,104.93,337.437,104.93,338.327z"/>
			<path style="opacity:0.2;enable-background:new    ;" d="M104.93,360.367c0,0.89,0.721,1.611,1.611,1.611
				c0.89,0,1.611-0.721,1.611-1.611s-0.721-1.611-1.611-1.611C105.651,358.756,104.93,359.477,104.93,360.367z"/>
		</g>
		<g>
			<g>
				
					<rect x="89.008" y="318.953" transform="matrix(-1 -1.224647e-16 1.224647e-16 -1 197.5982 642.521)" style="fill:#407BFF;" width="19.582" height="4.615"/>
				
					<rect x="89.008" y="318.953" transform="matrix(-1 -1.224647e-16 1.224647e-16 -1 197.5982 642.521)" style="opacity:0.7;fill:#FFFFFF;enable-background:new    ;" width="19.582" height="4.615"/>
				<g>
					<path style="fill:#263238;" d="M88.01,323.993h15.337c1.507,0,2.732-1.226,2.732-2.732s-1.226-2.732-2.732-2.732H88.01v1
						h15.337c0.955,0,1.732,0.777,1.732,1.732s-0.777,1.732-1.732,1.732H88.01V323.993z"/>
				</g>
				<g>
					<path style="fill:#263238;" d="M101.018,323.993h15.337c1.507,0,2.732-1.226,2.732-2.732s-1.226-2.732-2.732-2.732h-15.337v1
						h2.329c0.955,0,1.732,0.777,1.732,1.732s-0.777,1.732-1.732,1.732h-2.329V323.993z"/>
				</g>
				<g style="opacity:0.4;enable-background:new    ;">
					<path style="fill:#FFFFFF;" d="M88.01,323.993h15.337c1.507,0,2.732-1.226,2.732-2.732s-1.226-2.732-2.732-2.732H88.01v1
						h15.337c0.955,0,1.732,0.777,1.732,1.732s-0.777,1.732-1.732,1.732H88.01V323.993z"/>
				</g>
			</g>
			<g>
				
					<rect x="91.538" y="313.488" transform="matrix(-1 -1.224647e-16 1.224647e-16 -1 202.6593 631.5913)" style="fill:#407BFF;" width="19.583" height="4.615"/>
				
					<rect x="91.538" y="313.488" transform="matrix(-1 -1.224647e-16 1.224647e-16 -1 202.6593 631.5913)" style="opacity:0.7;fill:#FFFFFF;enable-background:new    ;" width="19.583" height="4.615"/>
				<g>
					<path style="fill:#407BFF;" d="M103.548,318.528h15.337c1.507,0,2.732-1.226,2.732-2.733c0-1.507-1.226-2.732-2.732-2.732
						h-15.337v1h2.329c0.955,0,1.732,0.777,1.732,1.732c0,0.955-0.777,1.733-1.732,1.733h-2.329V318.528z"/>
				</g>
				<g style="opacity:0.4;enable-background:new    ;">
					<path style="fill:#FFFFFF;" d="M103.548,318.528h15.337c1.507,0,2.732-1.226,2.732-2.733c0-1.507-1.226-2.732-2.732-2.732
						h-15.337v1h2.329c0.955,0,1.732,0.777,1.732,1.732c0,0.955-0.777,1.733-1.732,1.733h-2.329V318.528z"/>
				</g>
				<g>
					<path style="fill:#407BFF;" d="M90.54,318.528h15.337c1.507,0,2.732-1.226,2.732-2.733c0-1.507-1.226-2.732-2.732-2.732H90.54
						v1h15.337c0.955,0,1.732,0.777,1.732,1.732c0,0.955-0.777,1.733-1.732,1.733H90.54V318.528z"/>
				</g>
				<g style="opacity:0.2;enable-background:new    ;">
					<path style="fill:#FFFFFF;" d="M90.54,318.528h15.337c1.507,0,2.732-1.226,2.732-2.733c0-1.507-1.226-2.732-2.732-2.732H90.54
						v1h15.337c0.955,0,1.732,0.777,1.732,1.732c0,0.955-0.777,1.733-1.732,1.733H90.54V318.528z"/>
				</g>
			</g>
			<g>
				
					<rect x="87.517" y="308.023" transform="matrix(-1 -1.224647e-16 1.224647e-16 -1 194.6154 620.6616)" style="fill:#407BFF;" width="19.582" height="4.615"/>
				
					<rect x="87.517" y="308.023" transform="matrix(-1 -1.224647e-16 1.224647e-16 -1 194.6154 620.6616)" style="opacity:0.7;fill:#FFFFFF;enable-background:new    ;" width="19.582" height="4.615"/>
				<g>
					<path style="fill:#263238;" d="M99.526,313.063h15.337c1.507,0,2.732-1.226,2.732-2.732c0-1.507-1.226-2.732-2.732-2.732
						H99.526v1h2.329c0.955,0,1.732,0.777,1.732,1.732c0,0.955-0.777,1.732-1.732,1.732h-2.329V313.063z"/>
				</g>
				<g style="opacity:0.2;">
					<path style="fill:#FFFFFF;" d="M99.526,313.063h15.337c1.507,0,2.732-1.226,2.732-2.732c0-1.507-1.226-2.732-2.732-2.732
						H99.526v1h2.329c0.955,0,1.732,0.777,1.732,1.732c0,0.955-0.777,1.732-1.732,1.732h-2.329V313.063z"/>
				</g>
				<g>
					<path style="fill:#263238;" d="M86.518,313.063h15.337c1.507,0,2.732-1.226,2.732-2.732c0-1.507-1.226-2.732-2.732-2.732
						H86.518v1h15.337c0.955,0,1.732,0.777,1.732,1.732c0,0.955-0.777,1.732-1.732,1.732H86.518V313.063z"/>
				</g>
				<g style="opacity:0.4;enable-background:new    ;">
					<path style="fill:#FFFFFF;" d="M86.518,313.063h15.337c1.507,0,2.732-1.226,2.732-2.732c0-1.507-1.226-2.732-2.732-2.732
						H86.518v1h15.337c0.955,0,1.732,0.777,1.732,1.732c0,0.955-0.777,1.732-1.732,1.732H86.518V313.063z"/>
				</g>
			</g>
			<g>
				<rect x="99.546" y="302.558" style="fill:#407BFF;" width="19.582" height="4.615"/>
				<rect x="99.546" y="302.558" style="opacity:0.7;fill:#FFFFFF;enable-background:new    ;" width="19.582" height="4.615"/>
				<g>
					<path style="fill:#407BFF;" d="M120.126,307.598h-15.337c-1.507,0-2.732-1.226-2.732-2.732c0-1.507,1.226-2.732,2.732-2.732
						h15.337v1h-15.337c-0.955,0-1.732,0.777-1.732,1.732c0,0.955,0.777,1.732,1.732,1.732h15.337V307.598z"/>
				</g>
				<g>
					<path style="fill:#407BFF;" d="M107.118,307.598H91.781c-1.507,0-2.732-1.226-2.732-2.732c0-1.507,1.226-2.732,2.732-2.732
						h15.337v1h-2.329c-0.955,0-1.732,0.777-1.732,1.732c0,0.955,0.777,1.732,1.732,1.732h2.329V307.598z"/>
				</g>
				<g style="opacity:0.4;enable-background:new    ;">
					<path style="fill:#FFFFFF;" d="M120.126,307.598h-15.337c-1.507,0-2.732-1.226-2.732-2.732c0-1.507,1.226-2.732,2.732-2.732
						h15.337v1h-15.337c-0.955,0-1.732,0.777-1.732,1.732c0,0.955,0.777,1.732,1.732,1.732h15.337V307.598z"/>
				</g>
			</g>
		</g>
		<g>
			<path style="fill:#407BFF;" d="M134.505,318.953c1.574,0.154,6.675-0.13,8.005,0c0.315,0.031,0.594,0.087,0.875,0.141
				c0.433-0.079,0.895-0.135,1.405-0.141c1.388-0.018,6.302,0.022,8.005,0c3.692-0.047,7.121,3.212,12.923,4.003l-0.659,0.922
				h-8.005h-27.432h-8.005v-1.713C125.873,323.088,130.945,318.604,134.505,318.953z"/>
			<path style="opacity:0.5;fill:#FFFFFF;" d="M134.505,318.953c1.574,0.154,6.675-0.13,8.005,0
				c0.315,0.031,0.594,0.087,0.875,0.141c0.433-0.079,0.895-0.135,1.405-0.141c1.388-0.018,6.302,0.022,8.005,0
				c3.692-0.047,7.121,3.212,12.923,4.003l-0.659,0.922h-8.005h-27.432h-8.005v-1.713
				C125.873,323.088,130.945,318.604,134.505,318.953z"/>
			<path style="opacity:0.3;fill:#FFFFFF;enable-background:new    ;" d="M165.719,322.956c-5.802-0.791-9.231-4.05-12.923-4.003
				c-3.692,0.047-5.315,2.308-5.315,2.308s-1.41-1.959-4.971-2.308c-3.56-0.348-8.632,4.135-12.888,3.212v1.713h35.437
				L165.719,322.956z"/>
			<path style="fill:#407BFF;" d="M147.481,321.26c-0.58,0.014-0.778,1.959-0.778,1.959h1.582
				C148.286,323.22,148.062,321.246,147.481,321.26z"/>
			
				<rect x="121.187" y="323.22" transform="matrix(-1 -1.224647e-16 1.224647e-16 -1 286.9059 647.2127)" style="fill:#263238;" width="44.533" height="0.773"/>
		</g>
	</g>
</g>
<g id="Lamp">
	<g>
		
			<rect x="196.434" y="226.59" transform="matrix(-1 -1.224647e-16 1.224647e-16 -1 397.6143 640.8459)" style="fill:#263238;" width="4.747" height="187.665"/>
		
			<rect x="196.434" y="226.59" transform="matrix(-1 -1.224647e-16 1.224647e-16 -1 397.6143 640.8459)" style="opacity:0.2;fill:#FFFFFF;enable-background:new    ;" width="4.747" height="187.665"/>
		<path style="fill:#263238;" d="M192.082,415.478h13.45v-8.663c0-2.644-2.143-4.787-4.787-4.787h-3.875
			c-2.644,0-4.787,2.143-4.787,4.787V415.478z"/>
		<path style="fill:#407BFF;" d="M180.877,208.074h5.003h25.854h5.003c0.791,30.232,12.008,46.332,12.008,46.332h-17.011H185.88
			h-17.011C168.869,254.406,180.086,238.307,180.877,208.074z"/>
		<path style="opacity:0.3;fill:#FFFFFF;enable-background:new    ;" d="M192.082,415.478h13.45v-8.663
			c0-2.644-2.143-4.787-4.787-4.787h-3.875c-2.644,0-4.787,2.143-4.787,4.787V415.478z"/>
		<path style="fill:#263238;" d="M184.923,411.439h27.769c3.11,0,5.632,2.521,5.632,5.632v0h-39.033v0
			C179.291,413.961,181.812,411.439,184.923,411.439z"/>
		<path style="opacity:0.4;fill:#FFFFFF;enable-background:new    ;" d="M184.923,411.439h27.769c3.11,0,5.632,2.521,5.632,5.632v0
			h-39.033v0C179.291,413.961,181.812,411.439,184.923,411.439z"/>
		<path style="opacity:0.5;fill:#FFFFFF;enable-background:new    ;" d="M168.872,254.41h59.87c0,0-3.63-5.21-6.91-15.28
			c-2.48-7.62-4.76-18.03-5.1-31.06h-35.86c-0.34,13.03-2.62,23.43-5.09,31.05C172.503,249.19,168.872,254.41,168.872,254.41z"/>
		<path style="opacity:0.2;fill:#FFFFFF;enable-background:new    ;" d="M175.782,239.12c5.19,7.08,13.57,11.67,23.02,11.67
			c9.45,0,17.83-4.59,23.03-11.66c-2.48-7.62-4.76-18.03-5.1-31.06h-35.86C180.532,221.1,178.253,231.5,175.782,239.12z"/>
	</g>
</g>
<g id="Trash_bin">
	<g>
		<g>
			<path style="fill:#407BFF;" d="M377.173,393.537c-0.958-1.608,0.393-4.029,2.265-4.056c-0.82-2.308-0.011-5.098,1.917-6.609
				c0.243-0.191,0.523-0.369,0.832-0.37c0.331-0.001,0.625,0.201,0.894,0.394c1.764,1.267,3.528,2.535,5.292,3.802
				c0.404,0.29,0.822,0.597,1.05,1.038c1.082,2.096-2.818,4.781-1.215,6.51c0.46,0.497,1.202,0.599,1.776,0.958
				c1.259,0.787,1.411,2.516,1.999,3.881c0.587,1.365,2.633,2.423,3.417,1.161c-0.578-1.309,1.171-2.436,2.592-2.603
				c1.402-0.164,2.905-0.244,3.69-1.577c2.016,1.762,6.531-3.155,6.427-5.137c1.657,0.126,2.786,1.679,3.149,3.23
				c0.376,1.611,0.143,3.289,0.17,4.941c0.051,3.21,1.087,6.354,1.03,9.563c-0.044,2.498-1.009,5.271-3.296,6.276
				c-1.101,0.484-2.344,0.484-3.547,0.476c-8.68-0.055-17.36-0.111-26.039-0.167c-0.625-0.004-1.277-0.014-1.831-0.304
				c-1.175-0.613-1.423-2.156-1.532-3.477c-0.466-5.657-0.932-11.314-1.398-16.971C375.602,394.178,376.388,393.858,377.173,393.537
				z"/>
			<path style="opacity:0.3;fill:#FFFFFF;enable-background:new    ;" d="M377.173,393.537c-0.958-1.608,0.393-4.029,2.265-4.056
				c-0.82-2.308-0.011-5.098,1.917-6.609c0.243-0.191,0.523-0.369,0.832-0.37c0.331-0.001,0.625,0.201,0.894,0.394
				c1.764,1.267,3.528,2.535,5.292,3.802c0.404,0.29,0.822,0.597,1.05,1.038c1.082,2.096-2.818,4.781-1.215,6.51
				c0.46,0.497,1.202,0.599,1.776,0.958c1.259,0.787,1.411,2.516,1.999,3.881c0.587,1.365,2.633,2.423,3.417,1.161
				c-0.578-1.309,1.171-2.436,2.592-2.603c1.402-0.164,2.905-0.244,3.69-1.577c2.016,1.762,6.531-3.155,6.427-5.137
				c1.657,0.126,2.786,1.679,3.149,3.23c0.376,1.611,0.143,3.289,0.17,4.941c0.051,3.21,1.087,6.354,1.03,9.563
				c-0.044,2.498-1.009,5.271-3.296,6.276c-1.101,0.484-2.344,0.484-3.547,0.476c-8.68-0.055-17.36-0.111-26.039-0.167
				c-0.625-0.004-1.277-0.014-1.831-0.304c-1.175-0.613-1.423-2.156-1.532-3.477c-0.466-5.657-0.932-11.314-1.398-16.971
				C375.602,394.178,376.388,393.858,377.173,393.537z"/>
		</g>
		<g>
			<g>
				<path style="fill:#407BFF;" d="M371.106,366.014l0.332,4.082l0.237,2.914l0.607,7.595l0.351,4.348l0.475,5.8l0.199,2.487
					l0.057,0.74l0.237,2.914l0.322,4.016l0.199,2.487l0.209,2.516l0.237,2.924l0.18,2.231l0.199,2.478l0.086,1.082h5.326h4.49h6.484
					h4.49h6.484h4.49h5.316l0.086-1.082l0.199-2.487l0.181-2.212l0.237-2.924l0.208-2.525l0.2-2.487l0.323-4.006l0.237-2.924
					l0.066-0.74l0.199-2.487l0.465-5.8l0.351-4.357l0.617-7.585l0.237-2.914l0.332-4.082h-4.547h-2.934h-8.041h-2.933h-8.04h-2.934
					h-8.05h-2.924H371.106z M373.156,367.913h0.845l-0.779,0.779l0,0L373.156,367.913z M376.678,367.913h0.873l3.712,3.712
					l-4.148,4.149l-3.617-3.617l-0.076-0.987L376.678,367.913z M374.248,381.326l2.867-2.867l4.148,4.139l-4.148,4.149l-2.649-2.649
					L374.248,381.326z M412.686,384.099l-2.639,2.649l-4.149-4.149l4.149-4.139l2.867,2.867l0,0L412.686,384.099z M382.602,372.963
					l4.148,4.148l-4.148,4.149l-4.149-4.149L382.602,372.963z M382.602,370.286l-2.373-2.374h4.747L382.602,370.286z
					 M388.089,378.46l4.148,4.139l-4.148,4.149l-4.139-4.149L388.089,378.46z M393.576,392.234l-4.139-4.149l4.139-4.139
					l4.148,4.139L393.576,392.234z M399.063,389.434l4.149,4.148l-4.139,4.139l-4.149-4.148L399.063,389.434z M392.238,393.573
					l-4.148,4.148l-4.139-4.139l4.139-4.148L392.238,393.573z M389.437,377.112l4.139-4.148l4.148,4.148l-4.148,4.149
					L389.437,377.112z M399.063,378.46l4.149,4.139l-4.149,4.149l-4.139-4.149L399.063,378.46z M400.411,377.112l4.149-4.148
					l4.139,4.148l-4.139,4.149L400.411,377.112z M408.699,388.086l-4.139,4.149l-4.149-4.149l4.149-4.139L408.699,388.086z
					 M404.56,394.921l4.139,4.148l-4.139,4.139l-4.149-4.139L404.56,394.921z M403.212,404.556l-4.149,4.149l-4.139-4.149
					l4.149-4.148L403.212,404.556z M393.576,403.208l-4.139-4.139l4.139-4.148l4.148,4.148L393.576,403.208z M392.238,404.556
					l-4.148,4.149l-4.139-4.149l4.139-4.148L392.238,404.556z M386.751,410.043l-2.686,2.687h-2.924l-2.687-2.687l4.149-4.148
					L386.751,410.043z M382.602,403.208l-4.149-4.139l4.149-4.148l4.148,4.148L382.602,403.208z M382.602,392.234l-4.149-4.149
					l4.149-4.139l4.148,4.139L382.602,392.234z M387.652,367.913h0.874l3.712,3.712l-4.148,4.149l-4.139-4.149L387.652,367.913z
					 M391.212,367.913h4.737l-2.373,2.374L391.212,367.913z M398.626,367.913h0.873l3.712,3.712l-4.149,4.149l-4.139-4.149
					L398.626,367.913z M406.923,367.913l-2.363,2.374l-2.373-2.374H406.923z M410.483,367.913l3.247,3.256l-0.076,0.987
					l-3.607,3.617l-4.149-4.149l3.712-3.712H410.483z M413.996,367.913l-0.066,0.769l0,0l-0.769-0.769H413.996z M413.113,378.839
					l-1.728-1.728l2.032-2.031L413.113,378.839z M412.287,388.987l-0.902-0.902l1.064-1.063l0,0L412.287,388.987L412.287,388.987z
					 M411.717,396.05l-1.671,1.671l-4.149-4.139l4.149-4.148l2.041,2.05L411.717,396.05z M411.471,399.155l-0.086-0.086l0.095-0.095
					L411.471,399.155L411.471,399.155z M410.749,407.993l-0.702,0.703l-4.149-4.139l4.149-4.148l1.225,1.224L410.749,407.993
					L410.749,407.993z M408.699,412.73l1.348-1.348l0.399,0.399l-0.076,0.949H408.699z M406.022,412.73h-2.924l-2.686-2.687
					l4.149-4.148l4.139,4.148L406.022,412.73z M397.715,412.73l1.348-1.348l1.348,1.348H397.715z M392.114,412.73l-2.677-2.687
					l4.139-4.148l4.148,4.148l-2.686,2.687H392.114z M386.741,412.73l1.348-1.348l1.348,1.348H386.741z M376.716,411.78l0.399-0.399
					l1.348,1.348h-1.671L376.716,411.78z M375.891,401.632l1.225-1.224l4.148,4.148l-4.148,4.139l-0.712-0.703L375.891,401.632z
					 M375.672,398.965l0.104,0.104l-0.086,0.086L375.672,398.965L375.672,398.965z M375.065,391.484l2.051-2.05l4.148,4.148
					l-4.148,4.139l-1.68-1.671L375.065,391.484z M374.704,387.022l1.073,1.063l-0.911,0.912L374.704,387.022z M373.736,375.07
					l2.041,2.041l-1.737,1.737L373.736,375.07L373.736,375.07z"/>
			</g>
			<g style="opacity:0.6;enable-background:new    ;">
				<path style="fill:#FFFFFF;" d="M371.106,366.014l0.332,4.082l0.237,2.914l0.607,7.595l0.351,4.348l0.475,5.8l0.199,2.487
					l0.057,0.74l0.237,2.914l0.322,4.016l0.199,2.487l0.209,2.516l0.237,2.924l0.18,2.231l0.199,2.478l0.086,1.082h5.326h4.49h6.484
					h4.49h6.484h4.49h5.316l0.086-1.082l0.199-2.487l0.181-2.212l0.237-2.924l0.208-2.525l0.2-2.487l0.323-4.006l0.237-2.924
					l0.066-0.74l0.199-2.487l0.465-5.8l0.351-4.357l0.617-7.585l0.237-2.914l0.332-4.082h-4.547h-2.934h-8.041h-2.933h-8.04h-2.934
					h-8.05h-2.924H371.106z M373.156,367.913h0.845l-0.779,0.779l0,0L373.156,367.913z M376.678,367.913h0.873l3.712,3.712
					l-4.148,4.149l-3.617-3.617l-0.076-0.987L376.678,367.913z M374.248,381.326l2.867-2.867l4.148,4.139l-4.148,4.149l-2.649-2.649
					L374.248,381.326z M412.686,384.099l-2.639,2.649l-4.149-4.149l4.149-4.139l2.867,2.867l0,0L412.686,384.099z M382.602,372.963
					l4.148,4.148l-4.148,4.149l-4.149-4.149L382.602,372.963z M382.602,370.286l-2.373-2.374h4.747L382.602,370.286z
					 M388.089,378.46l4.148,4.139l-4.148,4.149l-4.139-4.149L388.089,378.46z M393.576,392.234l-4.139-4.149l4.139-4.139
					l4.148,4.139L393.576,392.234z M399.063,389.434l4.149,4.148l-4.139,4.139l-4.149-4.148L399.063,389.434z M392.238,393.573
					l-4.148,4.148l-4.139-4.139l4.139-4.148L392.238,393.573z M389.437,377.112l4.139-4.148l4.148,4.148l-4.148,4.149
					L389.437,377.112z M399.063,378.46l4.149,4.139l-4.149,4.149l-4.139-4.149L399.063,378.46z M400.411,377.112l4.149-4.148
					l4.139,4.148l-4.139,4.149L400.411,377.112z M408.699,388.086l-4.139,4.149l-4.149-4.149l4.149-4.139L408.699,388.086z
					 M404.56,394.921l4.139,4.148l-4.139,4.139l-4.149-4.139L404.56,394.921z M403.212,404.556l-4.149,4.149l-4.139-4.149
					l4.149-4.148L403.212,404.556z M393.576,403.208l-4.139-4.139l4.139-4.148l4.148,4.148L393.576,403.208z M392.238,404.556
					l-4.148,4.149l-4.139-4.149l4.139-4.148L392.238,404.556z M386.751,410.043l-2.686,2.687h-2.924l-2.687-2.687l4.149-4.148
					L386.751,410.043z M382.602,403.208l-4.149-4.139l4.149-4.148l4.148,4.148L382.602,403.208z M382.602,392.234l-4.149-4.149
					l4.149-4.139l4.148,4.139L382.602,392.234z M387.652,367.913h0.874l3.712,3.712l-4.148,4.149l-4.139-4.149L387.652,367.913z
					 M391.212,367.913h4.737l-2.373,2.374L391.212,367.913z M398.626,367.913h0.873l3.712,3.712l-4.149,4.149l-4.139-4.149
					L398.626,367.913z M406.923,367.913l-2.363,2.374l-2.373-2.374H406.923z M410.483,367.913l3.247,3.256l-0.076,0.987
					l-3.607,3.617l-4.149-4.149l3.712-3.712H410.483z M413.996,367.913l-0.066,0.769l0,0l-0.769-0.769H413.996z M413.113,378.839
					l-1.728-1.728l2.032-2.031L413.113,378.839z M412.287,388.987l-0.902-0.902l1.064-1.063l0,0L412.287,388.987L412.287,388.987z
					 M411.717,396.05l-1.671,1.671l-4.149-4.139l4.149-4.148l2.041,2.05L411.717,396.05z M411.471,399.155l-0.086-0.086l0.095-0.095
					L411.471,399.155L411.471,399.155z M410.749,407.993l-0.702,0.703l-4.149-4.139l4.149-4.148l1.225,1.224L410.749,407.993
					L410.749,407.993z M408.699,412.73l1.348-1.348l0.399,0.399l-0.076,0.949H408.699z M406.022,412.73h-2.924l-2.686-2.687
					l4.149-4.148l4.139,4.148L406.022,412.73z M397.715,412.73l1.348-1.348l1.348,1.348H397.715z M392.114,412.73l-2.677-2.687
					l4.139-4.148l4.148,4.148l-2.686,2.687H392.114z M386.741,412.73l1.348-1.348l1.348,1.348H386.741z M376.716,411.78l0.399-0.399
					l1.348,1.348h-1.671L376.716,411.78z M375.891,401.632l1.225-1.224l4.148,4.148l-4.148,4.139l-0.712-0.703L375.891,401.632z
					 M375.672,398.965l0.104,0.104l-0.086,0.086L375.672,398.965L375.672,398.965z M375.065,391.484l2.051-2.05l4.148,4.148
					l-4.148,4.139l-1.68-1.671L375.065,391.484z M374.704,387.022l1.073,1.063l-0.911,0.912L374.704,387.022z M373.736,375.07
					l2.041,2.041l-1.737,1.737L373.736,375.07L373.736,375.07z"/>
			</g>
		</g>
		<path style="fill:#407BFF;" d="M417,369.606h-46.84c-0.908,0-1.643-0.736-1.643-1.643v-1.999c0-0.908,0.736-1.643,1.643-1.643
			h46.839c0.908,0,1.643,0.736,1.643,1.643l0,1.998C418.643,368.87,417.907,369.606,417,369.606z"/>
		<path style="fill:#407BFF;" d="M373.774,417.072h39.611c0.908,0,1.643-0.736,1.643-1.643v-1.999c0-0.908-0.736-1.643-1.643-1.643
			h-39.611c-0.908,0-1.643,0.736-1.643,1.643v1.999C372.131,416.336,372.867,417.072,373.774,417.072z"/>
	</g>
</g>
<g id="Character">
	<g id="_x3C_Group_x3E__6_">
		<g>
			<g>
				<path style="fill:#263238;" d="M377.661,247.078h-3.612h-4.563h-91.063h-8.175c-4.312,0-8.236,3.495-8.766,7.807L248.976,356.74
					h23.789h75.449h10.618h13.171l12.506-101.855C385.039,250.573,381.973,247.078,377.661,247.078z"/>
				<path style="opacity:0.6;fill:#FFFFFF;enable-background:new    ;" d="M377.661,247.078h-3.612h-4.563h-91.063h-8.175
					c-4.312,0-8.236,3.495-8.766,7.807L248.976,356.74h23.789h75.449h10.618h13.171l12.506-101.855
					C385.039,250.573,381.973,247.078,377.661,247.078z"/>
				<path style="opacity:0.2;enable-background:new    ;" d="M348.214,356.74h23.789l12.506-101.855
					c0.53-4.312-2.536-7.807-6.848-7.807h-8.175c-4.312,0-8.236,3.495-8.765,7.807L348.214,356.74z"/>
			</g>
			<g>
				<polygon style="fill:#263238;" points="365.105,416.656 356.768,416.656 353.364,379.596 367.658,379.596 				"/>
				<polygon style="fill:#263238;" points="328.511,416.656 320.174,416.656 316.77,379.596 331.064,379.596 				"/>
				<polygon style="fill:#263238;" points="266.386,416.656 258.049,416.656 254.645,379.596 268.939,379.596 				"/>
				<polygon style="fill:#263238;" points="229.792,416.656 221.455,416.656 218.051,379.596 232.345,379.596 				"/>
				<polygon style="opacity:0.2;fill:#FFFFFF;enable-background:new    ;" points="328.511,416.656 320.174,416.656 316.77,379.596 
					331.064,379.596 				"/>
				<polygon style="opacity:0.2;fill:#FFFFFF;enable-background:new    ;" points="229.792,416.656 221.455,416.656 
					218.051,379.596 232.345,379.596 				"/>
				<path style="fill:#263238;" d="M371.227,377.948l-0.753,9.583c-0.059,0.694-0.636,1.232-1.34,1.232h-151.92
					c-0.704,0-1.281-0.538-1.339-1.232l-0.753-9.583H371.227z"/>
				<path style="opacity:0.2;fill:#FFFFFF;enable-background:new    ;" d="M335.046,377.948l-0.753,9.583
					c-0.059,0.694-0.636,1.232-1.34,1.232H217.214c-0.704,0-1.281-0.538-1.339-1.232l-0.753-9.583H335.046z"/>
			</g>
			<g>
				<path style="fill:#263238;" d="M325.012,351.838H268.07l-3.417-39.052c-0.677-7.736-7.155-13.672-14.921-13.672h-49.986
					c-3.696,0-6.598,3.167-6.275,6.849l0.786,8.982c0.258,2.952,2.539,5.325,5.478,5.7l1.773,0.226
					c2.191,0.279,3.891,2.048,4.083,4.249l4.31,49.265c0.314,3.592,3.322,6.348,6.927,6.348h108.184V351.838z"/>
				<path style="opacity:0.6;fill:#FFFFFF;enable-background:new    ;" d="M325.012,351.838H268.07l-3.417-39.052
					c-0.677-7.736-7.155-13.672-14.921-13.672h-49.986c-3.696,0-6.598,3.167-6.275,6.849l0.786,8.982
					c0.258,2.952,2.539,5.325,5.478,5.7l1.773,0.226c2.191,0.279,3.891,2.048,4.083,4.249l4.31,49.265
					c0.314,3.592,3.322,6.348,6.927,6.348h108.184V351.838z"/>
				<path style="opacity:0.2;enable-background:new    ;" d="M230.042,312.786c-0.677-7.736-7.155-13.672-14.921-13.672h19.237
					h15.375c7.766,0,14.244,5.936,14.921,13.672l3.417,39.052h-34.612L230.042,312.786z"/>
				<path style="opacity:0.1;fill:#FFFFFF;enable-background:new    ;" d="M325.012,351.838h-91.554l-3.417-39.052
					c-0.677-7.737-7.155-13.673-14.921-13.673h-15.375c-3.696,0-6.598,3.167-6.275,6.849l0.786,8.982
					c0.258,2.952,2.539,5.325,5.478,5.7l1.773,0.226c2.191,0.279,3.891,2.048,4.083,4.249l4.31,49.265
					c0.314,3.592,3.322,6.348,6.927,6.348h108.184V351.838z"/>
			</g>
			<g>
				<path style="fill:#263238;" d="M231.784,331.261h106.278c2.772,0,5.019,2.247,5.019,5.019v16.353
					c0,2.772-2.247,5.019-5.019,5.019H231.784c-2.772,0-5.019-2.247-5.019-5.019V336.28
					C226.764,333.508,229.012,331.261,231.784,331.261z"/>
				<path style="opacity:0.5;fill:#FFFFFF;enable-background:new    ;" d="M226.766,336.277v16.36c0,1.56,0.72,2.96,1.84,3.88
					c0.86,0.71,1.97,1.14,3.18,1.14h106.28c2.77,0,5.02-2.25,5.02-5.02v-16.36c0-2.77-2.25-5.02-5.02-5.02h-106.28
					C229.016,331.257,226.766,333.507,226.766,336.277z"/>
				<path style="opacity:0.1;fill:#FFFFFF;enable-background:new    ;" d="M226.766,336.277v16.36c0,1.56,0.72,2.96,1.84,3.88h79.28
					c2.77,0,5.02-2.24,5.02-5.02v-16.35c0-1.57-0.72-2.98-1.86-3.89h-79.26C229.016,331.257,226.766,333.507,226.766,336.277z"/>
			</g>
		</g>
		<g>
			<g>
				<path style="fill:#EBC0BB;" d="M297.105,265.814c-3.524,4.245-7.146,8.189-11.073,12.043c-1.96,1.92-3.981,3.801-6.151,5.616
					c-2.19,1.827-4.392,3.588-7.379,5.231l-0.287,0.153c-0.119,0.061-0.132,0.075-0.365,0.186c-0.376,0.179-0.744,0.345-1.236,0.492
					c-0.909,0.286-2.148,0.471-3.45,0.213c-1.29-0.241-2.412-0.874-3.171-1.518c-0.787-0.659-1.222-1.272-1.614-1.858
					c-0.708-1.139-1.048-2.09-1.328-2.972c-0.27-0.879-0.446-1.689-0.59-2.474c-0.556-3.114-0.578-5.919-0.582-8.718
					c0.084-5.578,0.662-10.929,1.596-16.339l5.632,0.365c0.345,5.19,0.735,10.474,1.365,15.502c0.304,2.497,0.74,5.003,1.329,7.078
					c0.15,0.509,0.315,0.984,0.483,1.358c0.159,0.369,0.351,0.646,0.375,0.616c-0.008-0.048-0.036-0.125-0.299-0.372
					c-0.244-0.228-0.761-0.547-1.397-0.668c-0.648-0.125-1.207-0.041-1.49,0.04c-0.17,0.057-0.241,0.073-0.318,0.109
					c-0.08,0.045,0.046-0.034,0.072-0.053l0.145-0.096c0.778-0.508,1.68-1.215,2.565-1.974c0.892-0.763,1.805-1.576,2.702-2.436
					c1.794-1.718,3.58-3.543,5.345-5.405c3.511-3.725,7.037-7.643,10.414-11.468L297.105,265.814z"/>
			</g>
			<path style="fill:#407BFF;" d="M279.39,265.818l7.494,5.483l5.589,4.096l0.804-0.995l2.064-2.551l3.948-4.879l-7.833-16.967
				c-2.71,1.799-8.563,10.458-10.987,14.141C279.803,265.172,279.39,265.818,279.39,265.818z"/>
			<path style="opacity:0.3;fill:#FFFFFF;" d="M279.39,265.818l7.494,5.483l5.589,4.096l0.804-0.995l-12.807-10.257
				C279.803,265.172,279.39,265.818,279.39,265.818z"/>
			<path style="opacity:0.2;" d="M286.884,271.301l5.589,4.096l2.869-3.546c-0.667-5.663-1.376-11.442-1.376-11.442
				S289.202,264.95,286.884,271.301z"/>
			<path style="fill:#407BFF;" d="M290.286,298.25l40.546,6.488c0,0,0.646-6.224,1.281-14.776v-0.011
				c0.402-5.462,0.794-11.866,1.006-18.206c0.317-9.6,0.222-19.042-0.91-24.789c0,0-4.297-0.879-10.585-1.27
				c-3.98-0.243-8.754-0.296-13.728,0.212c-5.493,0.54-11.241,1.757-16.438,4.107C291.457,250.005,293.277,269.772,290.286,298.25z"
				/>
			<g>
				<path style="fill:none;stroke:#263238;stroke-width:1.7781;stroke-miterlimit:10;" d="M272.723,247.633h-4.604
					c-1.15,0-2.083,1.161-2.083,2.592v10.065c0,1.432,0.933,2.592,2.083,2.592h4.604"/>
				<path style="fill:#EEC1BB;" d="M268.423,249.316l-2.624-0.079c-0.987-0.03-1.833,0.524-2.273,1.486l-2.052,4.497
					c-0.82,1.798-0.777,4.138,0.117,6.28l0.554,1.326c4.402,0.493,8.844-2.876,8.844-2.876l1.383-0.768
					c1.232-0.685,1.586-2.44,0.814-4.034l-1.779-3.669C270.793,250.213,269.606,249.352,268.423,249.316z"/>
				<path style="fill:#263238;" d="M269.034,264.619h11.716c0.5,0,0.905-0.405,0.905-0.905v-17.232c0-0.5-0.405-0.905-0.905-0.905
					h-11.716c-0.5,0-0.905,0.405-0.905,0.905v17.232C268.129,264.214,268.534,264.619,269.034,264.619z"/>
				<g style="enable-background:new    ;">
					<path style="fill:#263238;" d="M275.431,236.621c0.58,0.263,0.889,0.982,0.921,1.608c0.057,0.643-0.082,1.238-0.224,1.788
						c-0.164,0.547-0.349,1.059-0.519,1.547c-0.149,0.496-0.313,0.942-0.178,1.55c-0.57-0.309-0.759-1.089-0.737-1.686
						c0.002-0.627,0.155-1.195,0.294-1.731c0.162-0.532,0.322-1.033,0.444-1.518C275.54,237.69,275.615,237.216,275.431,236.621z"/>
				</g>
				<g style="enable-background:new    ;">
					<path style="fill:#263238;" d="M272.818,236.621c0.58,0.263,0.889,0.982,0.921,1.608c0.057,0.643-0.082,1.238-0.224,1.788
						c-0.164,0.547-0.349,1.059-0.519,1.547c-0.149,0.496-0.313,0.942-0.178,1.55c-0.57-0.309-0.759-1.089-0.737-1.686
						c0.002-0.627,0.155-1.195,0.294-1.731c0.162-0.532,0.323-1.033,0.444-1.518C272.927,237.69,273.001,237.216,272.818,236.621z"
						/>
				</g>
				<g style="enable-background:new    ;">
					<path style="fill:#263238;" d="M278.045,236.621c0.58,0.263,0.889,0.982,0.921,1.608c0.057,0.643-0.082,1.238-0.224,1.788
						c-0.165,0.547-0.349,1.059-0.519,1.547c-0.149,0.496-0.313,0.942-0.178,1.55c-0.57-0.309-0.759-1.089-0.737-1.686
						c0.002-0.627,0.155-1.195,0.293-1.732c0.163-0.532,0.323-1.033,0.445-1.518C278.154,237.69,278.228,237.216,278.045,236.621z"
						/>
				</g>
				<g style="opacity:0.7;enable-background:new    ;">
					<path style="fill:#FFFFFF;" d="M275.431,236.621c0.58,0.263,0.889,0.982,0.921,1.608c0.057,0.643-0.082,1.238-0.224,1.788
						c-0.164,0.547-0.349,1.059-0.519,1.547c-0.149,0.496-0.313,0.942-0.178,1.55c-0.57-0.309-0.759-1.089-0.737-1.686
						c0.002-0.627,0.155-1.195,0.294-1.731c0.162-0.532,0.322-1.033,0.444-1.518C275.54,237.69,275.615,237.216,275.431,236.621z"/>
				</g>
				<g style="opacity:0.7;enable-background:new    ;">
					<path style="fill:#FFFFFF;" d="M272.818,236.621c0.58,0.263,0.889,0.982,0.921,1.608c0.057,0.643-0.082,1.238-0.224,1.788
						c-0.164,0.547-0.349,1.059-0.519,1.547c-0.149,0.496-0.313,0.942-0.178,1.55c-0.57-0.309-0.759-1.089-0.737-1.686
						c0.002-0.627,0.155-1.195,0.294-1.731c0.162-0.532,0.323-1.033,0.444-1.518C272.927,237.69,273.001,237.216,272.818,236.621z"
						/>
				</g>
				<g style="opacity:0.7;enable-background:new    ;">
					<path style="fill:#FFFFFF;" d="M278.045,236.621c0.58,0.263,0.889,0.982,0.921,1.608c0.057,0.643-0.082,1.238-0.224,1.788
						c-0.165,0.547-0.349,1.059-0.519,1.547c-0.149,0.496-0.313,0.942-0.178,1.55c-0.57-0.309-0.759-1.089-0.737-1.686
						c0.002-0.627,0.155-1.195,0.293-1.732c0.163-0.532,0.323-1.033,0.445-1.518C278.154,237.69,278.228,237.216,278.045,236.621z"
						/>
				</g>
			</g>
			<g>
				<path style="fill:#E0E0E0;" d="M262.629,271.278l2.864-1.424l10.013,3.361l13.985-2.781l2.532,10.614
					c0,0-0.002,11.662-0.67,11.756c-0.668,0.095-15.772,0.029-15.772,0.029l-7.383-5.324L262.629,271.278z"/>
				<polygon style="fill:#263238;" points="293.101,271.428 297.808,295.834 278.929,296.868 266.187,292.563 260.87,269.591 
					275.446,274.272 				"/>
				<polygon style="opacity:0.2;fill:#FFFFFF;enable-background:new    ;" points="275.446,274.272 278.929,296.872 
					297.806,295.838 293.101,271.43 				"/>
				<polygon style="opacity:0.1;fill:#FFFFFF;" points="275.446,274.272 278.929,296.868 266.187,292.563 260.87,269.591 				"/>
			</g>
			<g>
				<path style="fill:#EEC1BB;" d="M288.129,288.004l-7.654-2.549l1.18,10.14c0,0,6.985,0.715,7.751-2.97L288.129,288.004z"/>
				<polygon style="fill:#EEC1BB;" points="274.243,287.667 275.608,296.004 281.656,295.595 280.475,285.455 				"/>
			</g>
			<path style="opacity:0.2;" d="M332.112,289.951c0.402-5.462,0.794-11.866,1.006-18.206c-3.61-6.658-7.081-12.257-7.081-12.257
				S309.123,273.333,332.112,289.951z"/>
			<g>
				<path style="fill:#EBC0BB;" d="M336.409,266.98c-0.291,1.489-0.59,2.783-0.948,4.15c-0.347,1.348-0.717,2.69-1.11,4.029
					c-0.807,2.672-1.724,5.331-2.83,7.975c-1.101,2.651-2.37,5.284-4.071,7.927c-0.853,1.323-1.816,2.647-3.088,3.95l-1.017,0.97
					c-0.389,0.321-0.766,0.636-1.181,0.942l-0.675,0.45l-0.341,0.219l-0.09,0.056l-0.212,0.12l-0.434,0.222
					c-1.043,0.463-1.629,0.544-2.206,0.656c-1.109,0.18-1.923,0.196-2.737,0.21c-0.802,0-1.551-0.033-2.284-0.077
					c-1.464-0.091-2.857-0.238-4.238-0.403c-2.753-0.35-5.432-0.797-8.093-1.3c-5.322-1-10.528-2.256-15.732-3.734l0.953-5.562
					l15.802,0.87c2.612,0.134,5.216,0.255,7.761,0.297c1.268,0.027,2.528,0.033,3.719-0.012c0.594-0.022,1.173-0.057,1.699-0.111
					c0.512-0.044,1.027-0.12,1.223-0.189c0.072-0.015,0.139-0.089-0.303,0.09c-0.073,0.031-0.144,0.066-0.214,0.105l-0.102,0.061
					c0,0,0.009-0.01,0.012-0.014l0.068-0.066c0.046-0.043,0.093-0.082,0.142-0.119l0.341-0.342l0.382-0.448
					c0.525-0.657,1.082-1.527,1.609-2.47c1.056-1.902,1.978-4.13,2.827-6.416c0.83-2.302,1.599-4.686,2.293-7.109
					c0.358-1.208,0.697-2.427,1.015-3.65l0.903-3.599L336.409,266.98z"/>
			</g>
			<path style="fill:#407BFF;" d="M320.829,272.508l16.216,3.8c0.159-0.646,0.307-1.291,0.455-1.937
				c2.826-12.966,1.725-25.985-5.292-27.414c0,0-4.901,2.466-7.092,6.742c-1.704,3.302-3.345,12.786-4.001,16.883
				C320.935,271.767,320.829,272.508,320.829,272.508z"/>
			<g>
				<ellipse style="opacity:0.2;fill:#FFFFFF;enable-background:new    ;" cx="304.974" cy="272.237" rx="7.569" ry="9.533"/>
				<polygon style="fill:#407BFF;" points="314.593,273.989 297.12,266.226 296.045,270.262 313.919,278.125 				"/>
				<polygon style="opacity:0.3;fill:#FFFFFF;" points="314.593,273.989 297.12,266.226 296.045,270.262 313.919,278.125 				"/>
				<polygon style="opacity:0.2;fill:#FFFFFF;enable-background:new    ;" points="305.319,276.507 301.872,274.845 
					301.872,276.228 304.974,277.585 				"/>
				<path style="opacity:0.3;fill:#FFFFFF;" d="M313.51,268.11c0,0-2.355-5.077-5.81-6.281c-3.454-1.204-7.328,1.431-7.328,1.431
					l-0.467-1.117c0,0,4.131-2.408,7.9-1.309c3.769,1.099,6.333,6.857,6.333,6.857L313.51,268.11z"/>
				<path style="opacity:0.3;fill:#FFFFFF;" d="M302.204,282.025c-2.353-0.86-4.326-4.44-4.326-4.44l-0.807,0.523
					c0,0,1.33,3.192,4.802,4.867c3.472,1.675,7.502-0.95,7.502-0.95l-0.544-0.701C308.831,281.324,305.918,283.381,302.204,282.025z
					"/>
			</g>
			<path style="opacity:0.3;fill:#FFFFFF;" d="M320.829,272.508l16.216,3.8c0.159-0.646,0.307-1.291,0.455-1.937
				c-3.736-0.868-13.199-3.048-16.385-3.789C320.935,271.767,320.829,272.508,320.829,272.508z"/>
			<path style="opacity:0.3;fill:#FFFFFF;" d="M306.381,255.583c8.224,0.635,16.502-8.679,16.502-8.679
				c-0.392-0.466-0.815-0.868-1.26-1.217c-3.98-0.243-8.754-0.296-13.728,0.212c-3.091,1.323-5.335,2.837-5.335,2.837
				S299.861,255.085,306.381,255.583z"/>
			<g>
				<path style="fill:#EEC1BB;" d="M315.73,226.729c0,0,0.003,0.009,0.005,0.04c-0.027,1.076-0.026,2.306,0.027,3.62
					c0.003,0.009-0.002,0.021,0.001,0.031c0.227,5.923,1.4,13.494,5.223,16.079c-2.423,3.514-6.34,6.798-12.829,7.715
					c-4.955,0.708-5.812-2.7-5.042-4.792c2.321-0.972,3.625-2.253,4.249-3.689c1.021-2.383,0.196-5.215-0.986-7.87L315.73,226.729z"
					/>
				<path style="opacity:0.2;" d="M315.73,226.729c0,0,0.003,0.009,0.005,0.04c0.017,0.262,0.126,1.669,0.027,3.62
					c0.003,0.009-0.002,0.021,0.001,0.031c-0.237,4.806-1.671,12.869-8.398,15.314c1.021-2.383,0.196-5.215-0.986-7.87
					L315.73,226.729z"/>
			</g>
			<g>
				<path style="fill:#263238;" d="M300.508,218.409c3.396,1.441,2.711,5.154-3,11.879c-3.454-3.026-5.279-9.864-3.435-12.037
					C295.917,216.077,297.551,217.165,300.508,218.409z"/>
				<path style="fill:#EEC1BB;" d="M314.485,221.448c0.826,5.428,1.598,9.175,0.809,12.577c-0.288,1.221-0.771,2.399-1.527,3.599
					c-4.328,6.815-14.038,5.409-17.342-1.486c-0.105-0.216-0.205-0.444-0.297-0.674c-2.754-6.301-3.782-16.723,2.505-20.994
					c4.635-3.184,10.973-2.013,14.157,2.622C313.685,218.387,314.265,219.882,314.485,221.448z"/>
				<path style="fill:#263238;" d="M304.038,225.784c0.127,0.593-0.086,1.142-0.474,1.223c-0.387,0.081-0.798-0.327-0.926-0.919
					c-0.127-0.593,0.078-1.138,0.462-1.227C303.485,224.771,303.871,225.209,304.038,225.784z"/>
				<path style="fill:#263238;" d="M297.299,227.243c0.127,0.593-0.086,1.142-0.473,1.223c-0.387,0.081-0.806-0.323-0.937-0.924
					c-0.131-0.6,0.086-1.142,0.473-1.223C296.749,226.238,297.172,226.65,297.299,227.243z"/>
				<path style="fill:#ED847E;" d="M299.558,227.05c-0.317,1.965-0.904,3.877-1.744,5.682c1.282,0.749,2.951-0.083,2.951-0.083
					L299.558,227.05z"/>
				<path style="fill:#263238;" d="M305.422,223.262c0.079-0.007,0.154-0.041,0.211-0.096c0.129-0.148,0.115-0.373-0.031-0.505
					c-0.851-0.773-2.025-1.082-3.146-0.828c-0.184,0.046-0.296,0.232-0.251,0.416c0.002,0.008,0.004,0.016,0.007,0.024
					c0.06,0.184,0.252,0.29,0.44,0.244l0,0c0.887-0.186,1.809,0.067,2.476,0.679C305.212,223.26,305.319,223.283,305.422,223.262z"
					/>
				<path style="fill:#263238;" d="M293.741,225.631c0.134-0.03,0.24-0.133,0.275-0.266c0.19-0.887,0.792-1.63,1.621-1.998
					c0.185-0.068,0.282-0.271,0.217-0.457c-0.066-0.182-0.264-0.28-0.449-0.221c-1.058,0.45-1.832,1.384-2.079,2.507
					c-0.048,0.188,0.066,0.38,0.255,0.428c0.002,0,0.003,0.001,0.005,0.001C293.637,225.637,293.689,225.639,293.741,225.631z"/>
				<path style="fill:#263238;" d="M310.196,215.614c-3.155,1.9-1.947,5.482,4.658,11.323c2.993-3.486,3.832-10.521,1.69-12.398
					C314.402,212.662,312.953,213.959,310.196,215.614z"/>
				
					<path style="fill:none;stroke:#263238;stroke-width:0.5263;stroke-linecap:round;stroke-linejoin:round;stroke-miterlimit:10;" d="
					M306.493,232.778c0,0-0.796,2.65-4.361,3.235"/>
				<path style="fill:#263238;" d="M310.695,218.082c0,0-0.352-4.057-5.561-3.819c-5.209,0.239-6.942,5.997-6.942,5.997
					s-0.978-1.509-0.268-3.65c0,0-1.565,1.379-1.921,4.659c0,0-1.047-0.817-1.292-3.645l-1.138,3.371c0,0-2.665-4.493,3.212-9.639
					c5.877-5.145,22.088-3.59,18.815,3.66L310.695,218.082z"/>
				<g>
					
						<path style="fill:none;stroke:#263238;stroke-width:0.5;stroke-linecap:round;stroke-linejoin:round;stroke-miterlimit:10;" d="
						M301.535,229.1l4.614-0.928c0.246-0.049,0.405-0.289,0.356-0.535l-0.511-2.537c-0.049-0.246-0.289-0.405-0.535-0.356
						l-4.614,0.928c-0.246,0.049-0.405,0.289-0.356,0.535l0.511,2.537C301.049,228.991,301.289,229.15,301.535,229.1z"/>
					
						<path style="fill:none;stroke:#263238;stroke-width:0.5;stroke-linecap:round;stroke-linejoin:round;stroke-miterlimit:10;" d="
						M293.988,230.619l4.614-0.928c0.246-0.049,0.405-0.289,0.356-0.535l-0.511-2.538c-0.049-0.246-0.289-0.405-0.535-0.356
						l-4.614,0.928c-0.246,0.049-0.405,0.289-0.356,0.535l0.511,2.537C293.503,230.509,293.742,230.668,293.988,230.619z"/>
					
						<path style="fill:none;stroke:#263238;stroke-width:0.5;stroke-linecap:round;stroke-linejoin:round;stroke-miterlimit:10;" d="
						M300.62,226.857c0,0-1.229-0.481-2.042,0.411"/>
				</g>
				
					<line style="fill:none;stroke:#263238;stroke-width:0.5;stroke-linecap:round;stroke-linejoin:round;stroke-miterlimit:10;" x1="306.101" y1="225.636" x2="314.827" y2="223.648"/>
				<path style="fill:#EEC1BB;" d="M319.212,226.528c-0.128,1.875-0.994,3.623-2.408,4.861c-1.887,1.619-3.877,0.182-4.233-2.145
					c-0.319-2.099,0.283-5.473,2.597-6.191C317.482,222.334,319.358,224.227,319.212,226.528z"/>
			</g>
			<path style="fill:#263238;" d="M212.178,392.938c0,0,16.613-60.162,19.362-63.617c4.49-5.646,47.501-11.618,47.501-11.618
				l11.246-19.453l40.62,5.692c0,0-2.998,28.573-7.965,35.931c-4.967,7.358-70.449,6.125-74.805,7.557
				c-4.356,1.431-20.802,48.387-20.802,48.387L212.178,392.938z"/>
			<polygon style="opacity:0.2;enable-background:new    ;" points="279.04,317.703 293.706,316.049 280.608,314.993 			"/>
			<path style="opacity:0.2;fill:#FFFFFF;" d="M212.179,392.933l15.15,2.88c0,0,16.45-46.95,20.81-48.38
				c4.35-1.43,69.83-0.2,74.8-7.56c4.97-7.36,7.97-35.93,7.97-35.93l-40.62-5.69l-3.32,5.74l-1.86,3.21l-6.07,10.5
				c0,0-43.01,5.97-47.5,11.62C228.789,332.773,212.179,392.933,212.179,392.933z"/>
			<path style="fill:#263238;" d="M309.511,314.993c0,0-47.166-18.071-60.021-13.059c-12.855,5.011-53.442,50.311-53.442,50.311
				l9.186,11.615c0,0,41.111-39.072,45.926-41.304c4.815-2.232,53.1,22.043,53.1,22.043L309.511,314.993z"/>
			<path style="opacity:0.2;fill:#FFFFFF;" d="M309.511,314.993c0,0-47.166-18.071-60.021-13.059
				c-12.855,5.011-53.442,50.311-53.442,50.311l9.186,11.615c0,0,41.111-39.072,45.926-41.304c4.815-2.232,53.1,22.043,53.1,22.043
				L309.511,314.993z"/>
			<polygon style="fill:#EEC1BB;" points="189.306,370.402 185.206,363.522 197.641,351.906 201.728,358.782 			"/>
			<polygon style="opacity:0.2;enable-background:new    ;" points="201.728,358.782 197.633,351.911 190.527,358.552 
				194.888,365.191 			"/>
			<g>
				<path style="fill:#407BFF;" d="M184.488,362.672c0.007-0.003-0.047-0.126-0.04-0.13c0,0-0.058-0.132-0.057-0.132
					c0.001,0,0.001-0.001,0.002-0.001c0.001,0,0.064,0.126,0.065,0.125c0.094-0.079,1.926-1.415,1.97-2.52
					c0.004-0.293-0.105-0.541-0.327-0.733c-0.228-0.237-0.58-0.272-0.865-0.109c-0.431,0.254-0.751,1.012-0.923,1.779
					c-0.215-0.828-0.55-1.722-1.054-1.977c-0.219-0.106-0.475-0.09-0.682,0.038c-0.357,0.145-0.597,0.484-0.618,0.869
					c0.058,0.533,0.313,1.025,0.716,1.379c0.489,0.516,1.034,0.976,1.623,1.375c0.007,0.022,0.019,0.043,0.038,0.057
					c0.022,0.007,0.042-0.008,0.065-0.008C184.43,362.689,184.459,362.684,184.488,362.672z M185.413,359.531
					c0.091-0.061,0.235-0.097,0.436,0.08l0.066,0.063c0.102,0.111,0.153,0.259,0.141,0.409c-0.019,0.658-0.919,1.557-1.493,2.053
					c-0.009-0.058-0.019-0.117-0.031-0.185C184.568,361.054,184.96,359.832,185.413,359.531z M182.329,359.898
					c0.029-0.239,0.182-0.446,0.403-0.544c0.1-0.065,0.227-0.072,0.334-0.019c0.503,0.251,0.898,1.688,1.083,2.774
					C182.982,361.235,182.31,360.426,182.329,359.898z"/>
			</g>
			<path style="fill:#263238;" d="M185.589,362.454l6.023,6.663c0.22,0.223,0.219,0.582-0.004,0.803
				c-0.002,0.002-0.004,0.004-0.007,0.007l-4.984,5.094c-0.575,0.519-1.46,0.48-1.986-0.088c-2.064-2.359-2.931-3.589-5.559-6.542
				c-1.622-1.804-4.998-5.216-6.827-8.031s1.003-4.547,2.025-3.517c2.437,2.434,7.227,4.412,10.053,4.898
				C184.813,361.832,185.258,362.082,185.589,362.454z"/>
			<polygon style="fill:#407BFF;" points="203.767,367.547 191.922,354.531 196.867,348.669 209.589,363.202 			"/>
			<polygon style="opacity:0.2;fill:#FFFFFF;" points="203.767,367.547 191.922,354.531 196.867,348.669 209.589,363.202 			"/>
			<g>
				<path style="fill:#407BFF;" d="M209.343,406.372c0.005-0.007-0.102-0.087-0.098-0.094c0-0.001-0.115-0.087-0.115-0.087
					c0.001-0.001,0.001-0.001,0.001-0.002c0.001-0.001,0.117,0.078,0.118,0.078c0.044-0.115,0.99-2.175,0.489-3.161
					c-0.14-0.258-0.356-0.421-0.643-0.48c-0.314-0.095-0.639,0.046-0.808,0.328c-0.253,0.432-0.162,1.25,0.063,2.003
					c-0.591-0.618-1.321-1.234-1.885-1.211c-0.243,0.014-0.459,0.153-0.576,0.366c-0.24,0.301-0.285,0.714-0.115,1.06
					c0.31,0.437,0.774,0.742,1.298,0.854c0.679,0.211,1.379,0.347,2.087,0.407c0.017,0.016,0.037,0.029,0.061,0.031
					c0.023-0.004,0.033-0.028,0.053-0.039C209.3,406.415,209.323,406.396,209.343,406.372z M208.615,403.18
					c0.05-0.098,0.158-0.199,0.42-0.143l0.089,0.023c0.143,0.047,0.26,0.151,0.322,0.288c0.305,0.583-0.042,1.808-0.301,2.521
					c-0.036-0.046-0.073-0.093-0.117-0.147C208.622,404.921,208.368,403.663,208.615,403.18z M206.104,405.006
					c-0.091-0.224-0.059-0.479,0.086-0.672c0.056-0.106,0.163-0.174,0.282-0.18c0.561-0.026,1.608,1.035,2.299,1.892
					C207.326,405.854,206.345,405.476,206.104,405.006z"/>
			</g>
			<polygon style="fill:#EEC1BB;" points="217.322,410.765 210.386,406.76 215.913,389.934 222.835,393.943 			"/>
			<polygon style="opacity:0.2;enable-background:new    ;" points="222.835,393.943 215.908,389.942 212.751,399.561 
				219.805,403.215 			"/>
			<path style="fill:#263238;" d="M210.197,405.644l8.51,2.874c0.301,0.087,0.475,0.401,0.388,0.703
				c-0.001,0.003-0.002,0.006-0.003,0.009l-1.862,6.879c-0.248,0.734-1.04,1.132-1.776,0.893c-2.953-1.051-4.31-1.7-8.045-2.995
				c-2.296-0.783-6.908-2.111-9.879-3.675c-2.971-1.564-1.345-4.458,0.05-4.058c3.315,0.934,8.461,0.321,11.165-0.635
				C209.216,405.48,209.727,405.481,210.197,405.644z"/>
			<polygon style="fill:#407BFF;" points="226.679,401.213 209.987,395.638 211.44,388.107 229.639,394.578 			"/>
			<polygon style="opacity:0.2;fill:#FFFFFF;" points="226.679,401.213 209.987,395.638 211.44,388.107 229.639,394.578 			"/>
			<path style="opacity:0.2;" d="M299.656,342.316c0,0-41.958-21.145-49.645-23.98c-7.686-2.835-24.052,6.229-26.847,28.697
				l3.366-3.686c0,0,3.917-12.271,5.01-14.026s21.24-4.721,21.24-4.721S283.909,340.216,299.656,342.316z"/>
			<path style="opacity:0.2;" d="M285.109,307.203l19.15,5.86c0,0-11.17-6.28-17.29-9.07L285.109,307.203z"/>
			<g>
				<polygon style="opacity:0.4;" points="318.2,303.317 330.906,304.906 330.424,308.762 316.873,307.161 				"/>
				<polygon style="opacity:0.4;" points="316.263,302.966 314.922,306.852 288.748,302.703 290.378,299.215 				"/>
				<path style="fill:#FFFFFF;" d="M302.475,301.977l-0.886,2.565c-0.217,0.627-0.922,1.043-1.575,0.929l-4.493-0.781
					c-0.653-0.114-1.007-0.714-0.791-1.34l0.886-2.565c0.216-0.627,0.922-1.043,1.575-0.929l4.493,0.781
					C302.338,300.75,302.692,301.35,302.475,301.977z"/>
			</g>
		</g>
		<g>
			<path style="fill:#263238;" d="M316.086,349.629l3.224-36.843c0.677-7.736,7.155-13.672,14.921-13.672h55.132
				c3.696,0,6.598,3.167,6.276,6.848l-0.786,8.983c-0.258,2.952-2.538,5.325-5.477,5.7l-1.773,0.226
				c-2.191,0.279-3.891,2.048-4.083,4.249l-4.31,49.265c-0.314,3.592-3.322,6.348-6.927,6.348h-56.194V349.629z"/>
			<path style="opacity:0.6;fill:#FFFFFF;enable-background:new    ;" d="M316.086,349.629l3.224-36.843
				c0.677-7.736,7.155-13.672,14.921-13.672h55.132c3.696,0,6.598,3.167,6.276,6.848l-0.786,8.983
				c-0.258,2.952-2.538,5.325-5.477,5.7l-1.773,0.226c-2.191,0.279-3.891,2.048-4.083,4.249l-4.31,49.265
				c-0.314,3.592-3.322,6.348-6.927,6.348h-56.194V349.629z"/>
			<g style="opacity:0.2;enable-background:new    ;">
				<path d="M339.45,374.384l4.31-49.265c0.193-2.2,1.893-3.969,4.084-4.249l1.772-0.226c2.939-0.375,5.22-2.748,5.478-5.699
					l0.786-8.983c0.322-3.682-2.58-6.849-6.275-6.849h39.757c3.695,0,6.597,3.167,6.275,6.849l-0.786,8.983
					c-0.258,2.952-2.539,5.324-5.478,5.699l-1.772,0.226c-2.191,0.279-3.891,2.048-4.084,4.249l-4.31,49.265
					c-0.314,3.592-3.322,6.348-6.927,6.348h-39.757C336.128,380.732,339.136,377.976,339.45,374.384z"/>
			</g>
			<path style="opacity:0.1;fill:#FFFFFF;enable-background:new    ;" d="M316.086,349.629l3.224-36.843
				c0.677-7.736,7.155-13.672,14.921-13.672h15.375c3.696,0,6.597,3.167,6.275,6.848l-0.786,8.983
				c-0.258,2.952-2.539,5.325-5.478,5.7l-1.772,0.226c-2.191,0.279-3.891,2.048-4.084,4.249l-4.31,49.265
				c-0.314,3.592-3.322,6.348-6.927,6.348h-16.437V349.629z"/>
		</g>
	</g>
</g>
</svg>
